{"title":"Delgo-AC3-5,1-DVDRip[Eng]2008","uid":5032934,"size":1462936587,"categoryP":"video","categoryS":"movies","magnet":"?xt=urn:btih:0557fc8dfce87832d100b1ad84d9bb601a62488f&amp;dn=Delgo-AC3-5%2C1-DVDRip%5BEng%5D2008&amp;tr=udp%3A%2F%2Ftracker.openbittorrent.com%3A80&amp;tr=udp%3A%2F%2Fopen.demonii.com%3A1337&amp;tr=udp%3A%2F%2Ftracker.coppersurfer.tk%3A6969&amp;tr=udp%3A%2F%2Fexodus.desync.com%3A6969","seeders":0,"leechers":1,"uploader":"FatFreddy31","files":-1,"time":1248983047,"description":" &lt;a href=&quot;http://www.imdb.com/title/tt0361500/&quot; rel=&quot;nofollow&quot; target=&quot;_NEW&quot;&gt;http://www.imdb.com/title/tt0361500/&lt;/a&gt;\n &lt;a href=&quot;\nhttp://www.delgo.com/&quot; rel=&quot;nofollow&quot; target=&quot;_NEW&quot;&gt;\nhttp://www.delgo.com/&lt;/a&gt;\n\nUser Rating:3.9/10 - 602 votes\n\nAnimation,Adventure,Comedy,Fantasy,Romance\n\nDirectors:Marc F. Adler/Jason Maurer\n\nWith the voices of:\nFreddie Prinze Jr. ...  Delgo (voice) \nMalcolm McDowell   ...  Raius (voice)\nChris Kattan       ...  Filo (voice)\nJennifer Love Hewitt ...  Princess Kyla (voice)\n\nAnd others.\n\nPlot:\nIn an exotic divided land, Delgo, an adventurous dreamer but naive teenager, must rally his group of troubled youth and some unlikely friends to protect their world from conflict between the terrestrial Lockni people, who harness the mysteries of the land. And the winged Nohrin people, who rule the skies. They live -segregated -in an uneasy peace until Delgo was framed for a crime he did not commit. After enlisting the help of a unlikely friend to escape a Nohri prison, Delgo discovers Imhoff is in danger so he must unite the two races against a common foe....\n\nInfo:\n\nGeneral\nComplete name                    : Delgo-AC3-5,1-DVDRip[Eng]2008.avi\nFormat                           : AVI\nFormat/Info                      : Audio Video Interleave\nFile size                        : 1.36 GiB\nDuration                         : 1h 29mn\nOverall bit rate                 : 2 182 Kbps\nWriting application              : VirtualDubMod 1.5.4.1 (build 2178/release)\nWriting library                  : VirtualDubMod build 2178/release\n\nVideo\nFormat                           : MPEG-4 Visual\nFormat profile                   : Simple@L3\nFormat settings, BVOP            : No\nFormat settings, QPel            : No\nFormat settings, GMC             : No warppoints\nFormat settings, Matrix          : Default\nCodec ID                         : XVID\nCodec ID/Hint                    : XviD\nDuration                         : 1h 29mn\nBit rate                         : 1 725 Kbps\nWidth                            : 576 pixels\nHeight                           : 320 pixels\nDisplay aspect ratio             : 16/9\nFrame rate                       : 23.976 fps\nResolution                       : 24 bits\nColorimetry                      : 4:2:0\nScan type                        : Progressive\nBits/(Pixel*Frame)               : 0.390\nStream size                      : 1.08 GiB (79%)\nWriting library                  : XviD 1.1.2 (UTC 2006-11-01)\n\nAudio\nFormat                           : AC-3\nFormat/Info                      : Audio Coding 3\nCodec ID                         : 2000\nDuration                         : 1h 29mn\nBit rate mode                    : Constant\nBit rate                         : 448 Kbps\nChannel(s)                       : 6 channels\nChannel positions                : Front: L C R, Surround: L R, LFE\nSampling rate                    : 48.0 KHz\nStream size                      : 286 MiB (21%)\nAlignment                        : Split accross interleaves\nInterleave, duration             : 42 ms (1.00 video frame)\nInterleave, preload duration     : 500 ms\n\nEnjoy....","torrent":{"xt":"urn:btih:0557fc8dfce87832d100b1ad84d9bb601a62488f","amp;dn":"Delgo-AC3-5%2C1-DVDRip%5BEng%5D2008","amp;tr":["udp%3A%2F%2Ftracker.openbittorrent.com%3A80","udp%3A%2F%2Fopen.demonii.com%3A1337","udp%3A%2F%2Ftracker.coppersurfer.tk%3A6969","udp%3A%2F%2Fexodus.desync.com%3A6969"],"infoHash":"0557fc8dfce87832d100b1ad84d9bb601a62488f","infoHashBuffer":{"type":"Buffer","data":[5,87,252,141,252,232,120,50,209,0,177,173,132,217,187,96,26,98,72,143]},"announce":[],"urlList":[]}}